<svg width="178" height="178" viewBox="0 0 178 178" fill="none" xmlns="http://www.w3.org/2000/svg">
<g filter="url(#filter0_d_459_403)">
<rect x="34.7788" y="30.5606" width="108.383" height="108.383" rx="18.0209" fill="white" shape-rendering="crispEdges"/>
<path d="M87.4934 67.4742C87.8087 67.4742 87.9675 67.2894 88.0475 66.9989C88.8652 62.5905 88.8134 62.4846 93.4065 61.614C93.7218 61.561 93.9077 61.3775 93.9077 61.0598C93.9077 60.7433 93.723 60.5586 93.4053 60.5057C88.8393 59.5821 88.9711 59.4763 88.0475 55.1197C87.9687 54.8302 87.8099 54.6455 87.4934 54.6455C87.1757 54.6455 87.0181 54.8302 86.9381 55.1197C86.0145 59.4763 86.1722 59.581 81.5802 60.5057C81.2897 60.5575 81.0779 60.7422 81.0779 61.0598C81.0779 61.3763 81.2897 61.561 81.5791 61.614C86.1733 62.5376 86.1204 62.5905 86.9381 66.9989C87.0169 67.2894 87.1769 67.4742 87.4934 67.4742ZM74.7165 85.6359C75.2177 85.6359 75.5613 85.3194 75.6142 84.8441C76.5637 77.7956 76.8013 77.7956 84.0874 76.3968C84.5627 76.3179 84.9062 76.0003 84.9062 75.4991C84.9062 75.0238 84.5627 74.6814 84.0874 74.6014C76.8013 73.599 76.5378 73.3614 75.6142 66.1812C75.5613 65.7059 75.2177 65.3623 74.7165 65.3623C74.2412 65.3623 73.8977 65.7059 73.8448 66.2071C72.9741 73.2814 72.6047 73.2555 65.3716 74.6014C64.8963 74.7073 64.5527 75.0238 64.5527 75.4991C64.5527 76.0273 64.8963 76.3179 65.4763 76.3968C72.6576 77.558 72.9741 77.7427 73.8448 84.7911C73.8977 85.3194 74.2412 85.6359 74.7165 85.6359ZM92.6136 114.859C93.3006 114.859 93.8018 114.357 93.9336 113.644C95.8078 99.1786 97.8407 96.9868 112.148 95.4032C112.887 95.3244 113.389 94.7702 113.389 94.0832C113.389 93.3961 112.887 92.869 112.148 92.7631C97.8407 91.1795 95.8078 88.9889 93.9336 74.5226C93.8018 73.8096 93.3006 73.3343 92.6136 73.3343C91.9276 73.3343 91.4264 73.8096 91.3206 74.5226C89.4464 88.9889 87.3875 91.1795 73.1059 92.7631C72.34 92.869 71.8388 93.3972 71.8388 94.0832C71.8388 94.7702 72.34 95.3244 73.1059 95.4032C87.3605 97.2774 89.3405 99.2045 91.3206 113.644C91.4264 114.357 91.9276 114.859 92.6136 114.859Z" fill="#0E4259"/>
</g>
<defs>
<filter id="filter0_d_459_403" x="0.796509" y="0.82608" width="176.347" height="176.348" filterUnits="userSpaceOnUse" color-interpolation-filters="sRGB">
<feFlood flood-opacity="0" result="BackgroundImageFix"/>
<feColorMatrix in="SourceAlpha" type="matrix" values="0 0 0 0 0 0 0 0 0 0 0 0 0 0 0 0 0 0 127 0" result="hardAlpha"/>
<feOffset dy="4.24779"/>
<feGaussianBlur stdDeviation="16.9911"/>
<feComposite in2="hardAlpha" operator="out"/>
<feColorMatrix type="matrix" values="0 0 0 0 0 0 0 0 0 0 0 0 0 0 0 0 0 0 0.1 0"/>
<feBlend mode="normal" in2="BackgroundImageFix" result="effect1_dropShadow_459_403"/>
<feBlend mode="normal" in="SourceGraphic" in2="effect1_dropShadow_459_403" result="shape"/>
</filter>
</defs>
</svg>
