<svg width="678" height="329" viewBox="0 0 678 329" fill="none" xmlns="http://www.w3.org/2000/svg">
<g filter="url(#filter0_f_1_2393)">
<ellipse cx="339.832" cy="146.043" rx="157.168" ry="74.3363" fill="#E9F1FF"/>
</g>
<g style="mix-blend-mode:overlay">
<line x1="1.42476" y1="6.25609" x2="1.42475" y2="328.721" stroke="black" stroke-width="1.41593"/>
<line x1="36.9726" y1="6.25609" x2="36.9726" y2="328.721" stroke="black" stroke-width="1.41593"/>
<line x1="72.5195" y1="6.25609" x2="72.5195" y2="328.721" stroke="black" stroke-width="1.41593"/>
<line x1="108.066" y1="6.25609" x2="108.066" y2="328.721" stroke="black" stroke-width="1.41593"/>
<line x1="143.613" y1="6.25609" x2="143.613" y2="328.721" stroke="black" stroke-width="1.41593"/>
<line x1="179.161" y1="6.25632" x2="179.161" y2="328.721" stroke="black" stroke-width="1.41593"/>
<line x1="214.709" y1="6.25632" x2="214.709" y2="328.721" stroke="black" stroke-width="1.41593"/>
<line x1="250.257" y1="6.25609" x2="250.257" y2="328.721" stroke="black" stroke-width="1.41593"/>
<line x1="285.803" y1="6.25632" x2="285.803" y2="328.721" stroke="black" stroke-width="1.41593"/>
<line x1="321.351" y1="6.25609" x2="321.351" y2="328.721" stroke="black" stroke-width="1.41593"/>
<line x1="356.897" y1="6.25609" x2="356.897" y2="328.721" stroke="black" stroke-width="1.41593"/>
<line x1="392.445" y1="6.25632" x2="392.445" y2="328.721" stroke="black" stroke-width="1.41593"/>
<line x1="427.993" y1="6.25609" x2="427.993" y2="328.721" stroke="black" stroke-width="1.41593"/>
<line x1="463.539" y1="6.25632" x2="463.539" y2="328.721" stroke="black" stroke-width="1.41593"/>
<line x1="499.087" y1="6.25609" x2="499.087" y2="328.721" stroke="black" stroke-width="1.41593"/>
<line x1="534.634" y1="6.25609" x2="534.634" y2="328.721" stroke="black" stroke-width="1.41593"/>
<line x1="570.182" y1="6.25632" x2="570.182" y2="328.721" stroke="black" stroke-width="1.41593"/>
<line x1="605.729" y1="6.25632" x2="605.729" y2="328.721" stroke="black" stroke-width="1.41593"/>
<line x1="641.275" y1="6.25632" x2="641.275" y2="328.721" stroke="black" stroke-width="1.41593"/>
<line x1="676.823" y1="6.25632" x2="676.823" y2="328.721" stroke="black" stroke-width="1.41593"/>
<line x1="1.13965" y1="326.743" x2="675.692" y2="326.743" stroke="black" stroke-width="1.41593"/>
<line x1="1.13965" y1="291.194" x2="675.692" y2="291.194" stroke="black" stroke-width="1.41593"/>
<line x1="1.13965" y1="255.648" x2="675.692" y2="255.648" stroke="black" stroke-width="1.41593"/>
<line x1="1.13965" y1="220.101" x2="675.692" y2="220.101" stroke="black" stroke-width="1.41593"/>
<line x1="1.13965" y1="184.552" x2="675.692" y2="184.552" stroke="black" stroke-width="1.41593"/>
<line x1="1.13965" y1="149.005" x2="675.692" y2="149.005" stroke="black" stroke-width="1.41593"/>
<line x1="1.13965" y1="113.458" x2="675.692" y2="113.458" stroke="black" stroke-width="1.41593"/>
<line x1="1.13965" y1="77.9092" x2="675.692" y2="77.9093" stroke="black" stroke-width="1.41593"/>
<line x1="1.13965" y1="42.3643" x2="675.692" y2="42.3643" stroke="black" stroke-width="1.41593"/>
<line x1="1.13965" y1="6.81743" x2="675.692" y2="6.81746" stroke="black" stroke-width="1.41593"/>
</g>
<g filter="url(#filter1_d_1_2393)">
<rect x="281.315" y="92.0977" width="109.31" height="109.31" rx="18.0209" fill="white" shape-rendering="crispEdges"/>
<path d="M357.385 131.663L336.462 122.359C336.308 122.286 336.14 122.249 335.97 122.249C335.8 122.249 335.632 122.286 335.478 122.359L314.555 131.663C314.338 131.758 314.154 131.912 314.023 132.109C313.892 132.305 313.82 132.535 313.816 132.771V139.368C313.816 151.479 321.053 166.149 335.527 171.22C335.814 171.318 336.126 171.318 336.413 171.22C350.887 166.149 358.124 151.479 358.124 139.368V132.771C358.12 132.535 358.048 132.305 357.917 132.109C357.786 131.912 357.602 131.758 357.385 131.663ZM347.51 139.811L334.513 156.357C334.324 156.596 334.087 156.792 333.817 156.933C333.547 157.074 333.251 157.156 332.947 157.175L332.819 157.18C332.247 157.179 331.698 156.951 331.293 156.547L324.598 149.852C324.194 149.447 323.967 148.898 323.968 148.326C323.969 147.755 324.197 147.207 324.601 146.803C325.006 146.399 325.555 146.173 326.126 146.173C326.698 146.174 327.246 146.402 327.65 146.807L332.627 151.784L344.123 137.15C344.482 136.719 344.995 136.446 345.553 136.387C346.111 136.328 346.669 136.489 347.11 136.836C347.551 137.183 347.84 137.687 347.915 138.243C347.99 138.799 347.845 139.362 347.512 139.813L347.51 139.811Z" fill="#0E4259"/>
</g>
<defs>
<filter id="filter0_f_1_2393" x="111.868" y="0.910568" width="455.929" height="290.265" filterUnits="userSpaceOnUse" color-interpolation-filters="sRGB">
<feFlood flood-opacity="0" result="BackgroundImageFix"/>
<feBlend mode="normal" in="SourceGraphic" in2="BackgroundImageFix" result="shape"/>
<feGaussianBlur stdDeviation="35.3982" result="effect1_foregroundBlur_1_2393"/>
</filter>
<filter id="filter1_d_1_2393" x="247.333" y="62.3631" width="177.274" height="177.274" filterUnits="userSpaceOnUse" color-interpolation-filters="sRGB">
<feFlood flood-opacity="0" result="BackgroundImageFix"/>
<feColorMatrix in="SourceAlpha" type="matrix" values="0 0 0 0 0 0 0 0 0 0 0 0 0 0 0 0 0 0 127 0" result="hardAlpha"/>
<feOffset dy="4.24779"/>
<feGaussianBlur stdDeviation="16.9911"/>
<feComposite in2="hardAlpha" operator="out"/>
<feColorMatrix type="matrix" values="0 0 0 0 0 0 0 0 0 0 0 0 0 0 0 0 0 0 0.1 0"/>
<feBlend mode="normal" in2="BackgroundImageFix" result="effect1_dropShadow_1_2393"/>
<feBlend mode="normal" in="SourceGraphic" in2="effect1_dropShadow_1_2393" result="shape"/>
</filter>
</defs>
</svg>
