<svg width="25" height="24" viewBox="0 0 25 24" fill="none" xmlns="http://www.w3.org/2000/svg">
<g opacity="0.5">
<path d="M2.5 6C2.5 4.495 3.28 2.92 4.5 2C4.5 2.845 5.19 4 6.5 4C7.29565 4 8.05871 4.31607 8.62132 4.87868C9.18393 5.44129 9.5 6.20435 9.5 7C9.5 7.386 9.421 7.752 9.288 8.091C10.0297 8.67978 10.7601 9.28256 11.479 9.899L9.399 11.979C8.78274 11.26 8.17996 10.5295 7.591 9.788C7.24371 9.926 6.8737 9.9979 6.5 10C4.29 10 2.5 8.21 2.5 6ZM14.652 12.848L15.993 11.507C16.614 11.8266 17.3016 11.9954 18 12C19.1935 12 20.3381 11.5259 21.182 10.682C22.0259 9.83807 22.5 8.69347 22.5 7.5C22.5 6.775 22.312 6.099 22.007 5.493L18.5 9L16.5 7L20.007 3.493C19.386 3.17344 18.6984 3.00456 18 3C16.8065 3 15.6619 3.47411 14.818 4.31802C13.9741 5.16193 13.5 6.30653 13.5 7.5C13.5 8.225 13.688 8.901 13.993 9.507L3.5 20L5.5 22L12.348 15.152C14.2321 17.0836 16.2278 18.9031 18.325 20.601L19.75 21.75L21.25 20.25L20.101 18.825C18.4031 16.7278 16.5836 14.7321 14.652 12.848Z" fill="#B71897"/>
</g>
</svg>
