<svg width="678" height="329" viewBox="0 0 678 329" fill="none" xmlns="http://www.w3.org/2000/svg">
<g filter="url(#filter0_f_1_2780)">
<ellipse cx="339.832" cy="146.043" rx="157.168" ry="74.3363" fill="#E9F1FF"/>
</g>
<g style="mix-blend-mode:overlay">
<line x1="1.42476" y1="6.25609" x2="1.42475" y2="328.721" stroke="black" stroke-width="1.41593"/>
<line x1="36.9726" y1="6.25609" x2="36.9726" y2="328.721" stroke="black" stroke-width="1.41593"/>
<line x1="72.5195" y1="6.25609" x2="72.5195" y2="328.721" stroke="black" stroke-width="1.41593"/>
<line x1="108.066" y1="6.25609" x2="108.066" y2="328.721" stroke="black" stroke-width="1.41593"/>
<line x1="143.613" y1="6.25609" x2="143.613" y2="328.721" stroke="black" stroke-width="1.41593"/>
<line x1="179.161" y1="6.25632" x2="179.161" y2="328.721" stroke="black" stroke-width="1.41593"/>
<line x1="214.709" y1="6.25632" x2="214.709" y2="328.721" stroke="black" stroke-width="1.41593"/>
<line x1="250.257" y1="6.25609" x2="250.257" y2="328.721" stroke="black" stroke-width="1.41593"/>
<line x1="285.802" y1="6.25632" x2="285.802" y2="328.721" stroke="black" stroke-width="1.41593"/>
<line x1="321.351" y1="6.25609" x2="321.351" y2="328.721" stroke="black" stroke-width="1.41593"/>
<line x1="356.897" y1="6.25609" x2="356.897" y2="328.721" stroke="black" stroke-width="1.41593"/>
<line x1="392.445" y1="6.25632" x2="392.445" y2="328.721" stroke="black" stroke-width="1.41593"/>
<line x1="427.993" y1="6.25609" x2="427.993" y2="328.721" stroke="black" stroke-width="1.41593"/>
<line x1="463.539" y1="6.25632" x2="463.539" y2="328.721" stroke="black" stroke-width="1.41593"/>
<line x1="499.087" y1="6.25609" x2="499.087" y2="328.721" stroke="black" stroke-width="1.41593"/>
<line x1="534.634" y1="6.25609" x2="534.634" y2="328.721" stroke="black" stroke-width="1.41593"/>
<line x1="570.182" y1="6.25632" x2="570.182" y2="328.721" stroke="black" stroke-width="1.41593"/>
<line x1="605.729" y1="6.25632" x2="605.729" y2="328.721" stroke="black" stroke-width="1.41593"/>
<line x1="641.275" y1="6.25632" x2="641.275" y2="328.721" stroke="black" stroke-width="1.41593"/>
<line x1="676.823" y1="6.25632" x2="676.823" y2="328.721" stroke="black" stroke-width="1.41593"/>
<line x1="1.13965" y1="326.743" x2="675.692" y2="326.743" stroke="black" stroke-width="1.41593"/>
<line x1="1.13965" y1="291.194" x2="675.692" y2="291.194" stroke="black" stroke-width="1.41593"/>
<line x1="1.13965" y1="255.648" x2="675.692" y2="255.648" stroke="black" stroke-width="1.41593"/>
<line x1="1.13965" y1="220.101" x2="675.692" y2="220.101" stroke="black" stroke-width="1.41593"/>
<line x1="1.13965" y1="184.552" x2="675.692" y2="184.552" stroke="black" stroke-width="1.41593"/>
<line x1="1.13965" y1="149.005" x2="675.692" y2="149.005" stroke="black" stroke-width="1.41593"/>
<line x1="1.13965" y1="113.458" x2="675.692" y2="113.458" stroke="black" stroke-width="1.41593"/>
<line x1="1.13965" y1="77.9092" x2="675.692" y2="77.9093" stroke="black" stroke-width="1.41593"/>
<line x1="1.13965" y1="42.3643" x2="675.692" y2="42.3643" stroke="black" stroke-width="1.41593"/>
<line x1="1.13965" y1="6.81743" x2="675.692" y2="6.81746" stroke="black" stroke-width="1.41593"/>
</g>
<g filter="url(#filter1_d_1_2780)">
<rect x="281.315" y="92.0977" width="109.31" height="109.31" rx="18.0209" fill="white" shape-rendering="crispEdges"/>
<path fill-rule="evenodd" clip-rule="evenodd" d="M362.637 146.753C362.637 161.481 350.698 173.419 335.97 173.419C321.242 173.419 309.303 161.481 309.303 146.753C309.303 132.025 321.242 120.086 335.97 120.086C350.698 120.086 362.637 132.025 362.637 146.753ZM346.717 138.673C347.091 139.048 347.302 139.556 347.302 140.086C347.302 140.616 347.091 141.124 346.717 141.499L333.383 154.833C333.008 155.207 332.5 155.417 331.97 155.417C331.44 155.417 330.932 155.207 330.557 154.833L325.223 149.499C325.027 149.316 324.869 149.095 324.76 148.85C324.651 148.605 324.592 148.34 324.587 148.071C324.582 147.803 324.632 147.536 324.732 147.287C324.833 147.038 324.983 146.812 325.173 146.622C325.363 146.432 325.589 146.282 325.838 146.182C326.087 146.081 326.354 146.032 326.622 146.036C326.891 146.041 327.156 146.1 327.401 146.209C327.646 146.318 327.867 146.476 328.05 146.673L331.97 150.593L337.93 144.633L343.89 138.673C344.265 138.298 344.773 138.088 345.303 138.088C345.833 138.088 346.342 138.298 346.717 138.673Z" fill="#0E4259"/>
</g>
<defs>
<filter id="filter0_f_1_2780" x="111.868" y="0.910568" width="455.929" height="290.265" filterUnits="userSpaceOnUse" color-interpolation-filters="sRGB">
<feFlood flood-opacity="0" result="BackgroundImageFix"/>
<feBlend mode="normal" in="SourceGraphic" in2="BackgroundImageFix" result="shape"/>
<feGaussianBlur stdDeviation="35.3982" result="effect1_foregroundBlur_1_2780"/>
</filter>
<filter id="filter1_d_1_2780" x="247.333" y="62.3631" width="177.274" height="177.274" filterUnits="userSpaceOnUse" color-interpolation-filters="sRGB">
<feFlood flood-opacity="0" result="BackgroundImageFix"/>
<feColorMatrix in="SourceAlpha" type="matrix" values="0 0 0 0 0 0 0 0 0 0 0 0 0 0 0 0 0 0 127 0" result="hardAlpha"/>
<feOffset dy="4.24779"/>
<feGaussianBlur stdDeviation="16.9911"/>
<feComposite in2="hardAlpha" operator="out"/>
<feColorMatrix type="matrix" values="0 0 0 0 0 0 0 0 0 0 0 0 0 0 0 0 0 0 0.1 0"/>
<feBlend mode="normal" in2="BackgroundImageFix" result="effect1_dropShadow_1_2780"/>
<feBlend mode="normal" in="SourceGraphic" in2="effect1_dropShadow_1_2780" result="shape"/>
</filter>
</defs>
</svg>
