<svg width="24" height="25" viewBox="0 0 24 25" fill="none" xmlns="http://www.w3.org/2000/svg">
<path d="M4 11.3C4 10.6697 4.12416 10.0455 4.36538 9.46312C4.6066 8.88076 4.96017 8.35161 5.40589 7.90589C6.30606 7.00571 7.52696 6.5 8.8 6.5H9C9.26522 6.5 9.51957 6.60536 9.70711 6.79289C9.89464 6.98043 10 7.23478 10 7.5C10 7.76522 9.89464 8.01957 9.70711 8.20711C9.51957 8.39464 9.26522 8.5 9 8.5H8.8C8.05739 8.5 7.3452 8.795 6.8201 9.3201C6.295 9.8452 6 10.5574 6 11.3V11.7C6 12.4426 6.295 13.1548 6.8201 13.6799C7.3452 14.205 8.05739 14.5 8.8 14.5H9C9.26522 14.5 9.51957 14.6054 9.70711 14.7929C9.89464 14.9804 10 15.2348 10 15.5C10 15.7652 9.89464 16.0196 9.70711 16.2071C9.51957 16.3946 9.26522 16.5 9 16.5H8.8C7.52696 16.5 6.30606 15.9943 5.40589 15.0941C4.50571 14.1939 4 12.973 4 11.7V11.3ZM20 11.3C20 10.6697 19.8758 10.0455 19.6346 9.46312C19.3934 8.88076 19.0398 8.35161 18.5941 7.90589C18.1484 7.46017 17.6192 7.1066 17.0369 6.86538C16.4545 6.62416 15.8303 6.5 15.2 6.5H15C14.7348 6.5 14.4804 6.60536 14.2929 6.79289C14.1054 6.98043 14 7.23478 14 7.5C14 7.76522 14.1054 8.01957 14.2929 8.20711C14.4804 8.39464 14.7348 8.5 15 8.5H15.2C15.9426 8.5 16.6548 8.795 17.1799 9.3201C17.705 9.8452 18 10.5574 18 11.3V11.7C18 12.4426 17.705 13.1548 17.1799 13.6799C16.6548 14.205 15.9426 14.5 15.2 14.5H15C14.7348 14.5 14.4804 14.6054 14.2929 14.7929C14.1054 14.9804 14 15.2348 14 15.5C14 15.7652 14.1054 16.0196 14.2929 16.2071C14.4804 16.3946 14.7348 16.5 15 16.5H15.2C15.8303 16.5 16.4545 16.3758 17.0369 16.1346C17.6192 15.8934 18.1484 15.5398 18.5941 15.0941C19.0398 14.6484 19.3934 14.1192 19.6346 13.5369C19.8758 12.9545 20 12.3303 20 11.7V11.3ZM9 10.5C8.73478 10.5 8.48043 10.6054 8.29289 10.7929C8.10536 10.9804 8 11.2348 8 11.5C8 11.7652 8.10536 12.0196 8.29289 12.2071C8.48043 12.3946 8.73478 12.5 9 12.5H15C15.2652 12.5 15.5196 12.3946 15.7071 12.2071C15.8946 12.0196 16 11.7652 16 11.5C16 11.2348 15.8946 10.9804 15.7071 10.7929C15.5196 10.6054 15.2652 10.5 15 10.5H9Z" fill="#1970F3"/>
</svg>
