<svg
  width="160"
  height="64"
  fill="none"
  viewBox="0 0 240 64"
  xmlns="http://www.w3.org/2000/svg"
>
  <g filter="url(#filter0_d_14_4572)">
    <path
      d="M0.723145 39.8019L26.9733 13.1927C26.9733 13.1927 28.0762 12.1523 26.9733 10.909C24.778 8.42755 18.6602 2.25777 18.6602 2.25777C18.6602 2.25777 17.0996 -0.426548 15.0707 1.1133L0.723145 16.3557V39.8019Z"
      fill="#EDEDED"
    ></path>
    <path
      d="M0.723155 16.4337L26.9733 43.0428C26.9733 43.0428 28.0762 44.0833 26.9733 45.3318C24.778 47.8132 18.6602 53.983 18.6602 53.983C18.6602 53.983 17.0996 56.6673 15.0708 55.1275L0.629517 39.8851L0.723155 16.4337Z"
      fill="white"
    ></path>
    <path
      d="M46.236 49V7.44768H53.7633V26.5398H54.2705L70.4816 7.44768H79.6726L63.6036 26.0935L79.8147 49H70.7657L58.3689 31.1861L53.7633 36.6236V49H46.236ZM93.2299 49.6087C90.1053 49.6087 87.4069 48.9594 85.1345 47.6609C82.8756 46.3489 81.1375 44.4958 79.9202 42.1017C78.7028 39.694 78.0941 36.8603 78.0941 33.6005C78.0941 30.3948 78.7028 27.5813 79.9202 25.1602C81.151 22.7255 82.8689 20.8318 85.0736 19.4792C87.2784 18.113 89.8686 17.43 92.8444 17.43C94.7651 17.43 96.5776 17.7411 98.2819 18.3633C99.9997 18.972 101.515 19.9188 102.827 21.2038C104.152 22.4888 105.194 24.1254 105.951 26.1138C106.709 28.0886 107.087 30.4421 107.087 33.1744V35.4265H81.5433V30.4759H100.047C100.034 29.0692 99.7292 27.8181 99.134 26.7224C98.5389 25.6133 97.707 24.7409 96.6385 24.1051C95.5834 23.4694 94.3526 23.1515 92.9458 23.1515C91.4444 23.1515 90.1256 23.5167 88.9894 24.2472C87.8532 24.964 86.9673 25.9109 86.3315 27.0876C85.7093 28.2509 85.3915 29.5291 85.378 30.9223V35.2439C85.378 37.0564 85.7093 38.6119 86.3721 39.9104C87.0349 41.1954 87.9615 42.1828 89.1518 42.8727C90.3421 43.549 91.7352 43.8871 93.3313 43.8871C94.3999 43.8871 95.367 43.7383 96.2327 43.4408C97.0984 43.1297 97.8491 42.6765 98.4848 42.0814C99.1205 41.4862 99.6007 40.7491 99.9253 39.8699L106.783 40.6408C106.35 42.4533 105.525 44.0359 104.308 45.3885C103.104 46.7276 101.562 47.7691 99.6819 48.5131C97.8017 49.2435 95.6511 49.6087 93.2299 49.6087ZM117.789 30.7397V49H110.444V17.8358H117.464V23.1312H117.83C118.546 21.3864 119.689 19.9999 121.258 18.972C122.841 17.944 124.796 17.43 127.122 17.43C129.273 17.43 131.146 17.8899 132.742 18.8096C134.352 19.7294 135.596 21.0617 136.475 22.8066C137.368 24.5515 137.808 26.6683 137.794 29.1571V49H130.449V30.2933C130.449 28.2103 129.908 26.5804 128.826 25.4036C127.758 24.2269 126.277 23.6385 124.383 23.6385C123.098 23.6385 121.955 23.9225 120.954 24.4906C119.967 25.0452 119.189 25.85 118.621 26.905C118.066 27.9601 117.789 29.2383 117.789 30.7397ZM153.969 49.5478C151.52 49.5478 149.329 48.9188 147.395 47.6609C145.461 46.403 143.932 44.577 142.81 42.1828C141.687 39.7887 141.126 36.8806 141.126 33.4585C141.126 29.9958 141.694 27.0741 142.83 24.6935C143.98 22.2994 145.528 20.4936 147.476 19.2763C149.424 18.0454 151.595 17.43 153.989 17.43C155.815 17.43 157.316 17.7411 158.493 18.3633C159.67 18.972 160.603 19.7091 161.293 20.5748C161.983 21.427 162.517 22.2318 162.896 22.9892H163.2V7.44768H170.565V49H163.342V44.09H162.896C162.517 44.8475 161.969 45.6523 161.253 46.5044C160.536 47.343 159.589 48.0599 158.412 48.6551C157.235 49.2502 155.754 49.5478 153.969 49.5478ZM156.018 43.5219C157.573 43.5219 158.899 43.1026 159.995 42.264C161.09 41.4118 161.922 40.2283 162.49 38.7134C163.058 37.1984 163.342 35.4333 163.342 33.4179C163.342 31.4025 163.058 29.6508 162.49 28.163C161.936 26.6751 161.111 25.5186 160.015 24.6935C158.933 23.8684 157.6 23.4559 156.018 23.4559C154.381 23.4559 153.015 23.8819 151.919 24.7341C150.824 25.5862 149.999 26.763 149.444 28.2644C148.89 29.7658 148.612 31.4836 148.612 33.4179C148.612 35.3656 148.89 37.1038 149.444 38.6322C150.012 40.1471 150.844 41.3442 151.94 42.2234C153.049 43.0891 154.408 43.5219 156.018 43.5219ZM184.503 49.629C182.528 49.629 180.749 49.2773 179.167 48.5739C177.598 47.857 176.353 46.802 175.434 45.4088C174.527 44.0156 174.074 42.2978 174.074 40.2553C174.074 38.4969 174.399 37.0429 175.048 35.8932C175.697 34.7434 176.583 33.8237 177.706 33.1338C178.829 32.444 180.093 31.9232 181.5 31.5716C182.92 31.2064 184.388 30.9426 185.903 30.7803C187.729 30.5909 189.21 30.4218 190.346 30.273C191.482 30.1107 192.308 29.8673 192.822 29.5426C193.349 29.2045 193.613 28.6837 193.613 27.9804V27.8586C193.613 26.3302 193.16 25.1466 192.253 24.308C191.347 23.4694 190.042 23.0501 188.338 23.0501C186.539 23.0501 185.112 23.4423 184.057 24.2269C183.015 25.0114 182.312 25.9379 181.947 27.0065L175.089 26.0326C175.63 24.1389 176.523 22.5564 177.767 21.2849C179.011 19.9999 180.533 19.0396 182.332 18.4039C184.131 17.7546 186.119 17.43 188.297 17.43C189.798 17.43 191.293 17.6058 192.781 17.9575C194.269 18.3092 195.628 18.8908 196.859 19.7024C198.09 20.5004 199.077 21.5893 199.821 22.9689C200.579 24.3486 200.958 26.0732 200.958 28.1427V49H193.897V44.719H193.653C193.207 45.5846 192.578 46.3962 191.767 47.1537C190.968 47.8976 189.961 48.4995 188.743 48.9594C187.54 49.4058 186.126 49.629 184.503 49.629ZM186.41 44.232C187.885 44.232 189.163 43.9412 190.245 43.3596C191.327 42.7644 192.159 41.9799 192.74 41.006C193.336 40.0322 193.633 38.9704 193.633 37.8206V34.1483C193.403 34.3377 193.011 34.5135 192.456 34.6758C191.915 34.8381 191.307 34.9801 190.63 35.1019C189.954 35.2236 189.284 35.3318 188.622 35.4265C187.959 35.5212 187.384 35.6024 186.897 35.67C185.801 35.8188 184.821 36.0622 183.955 36.4004C183.089 36.7385 182.406 37.212 181.906 37.8206C181.405 38.4158 181.155 39.1868 181.155 40.1336C181.155 41.4862 181.649 42.5074 182.636 43.1973C183.624 43.8871 184.882 44.232 186.41 44.232ZM212.831 7.44768V49H205.486V7.44768H212.831Z"
      fill="white"
    ></path>
  </g>
</svg>

