<svg width="47" height="48" viewBox="0 0 47 48" fill="none" xmlns="http://www.w3.org/2000/svg">
<rect y="0.5" width="47" height="47" rx="14.3878" fill="#E8F4F9"/>
<path d="M27.7936 17.7132C27.7008 17.6204 27.6273 17.5102 27.5771 17.3889C27.5269 17.2676 27.5011 17.1377 27.5012 17.0064C27.5012 16.8752 27.5271 16.7453 27.5774 16.624C27.6276 16.5028 27.7013 16.3927 27.7941 16.2999C27.8869 16.2071 27.9971 16.1336 28.1184 16.0834C28.2397 16.0332 28.3696 16.0074 28.5009 16.0074C28.6321 16.0075 28.762 16.0334 28.8833 16.0836C29.0045 16.1339 29.1146 16.2076 29.2074 16.3004L34.2002 21.3001C34.3872 21.4875 34.4922 21.7413 34.4922 22.006C34.4922 22.2707 34.3872 22.5246 34.2002 22.7119L29.2074 27.7057C29.1146 27.7985 29.0045 27.8722 28.8833 27.9224C28.762 27.9727 28.6321 27.9986 28.5009 27.9986C28.3696 27.9987 28.2397 27.9729 28.1184 27.9227C27.9971 27.8725 27.8869 27.799 27.7941 27.7062C27.7013 27.6134 27.6276 27.5033 27.5774 27.3821C27.5271 27.2608 27.5012 27.1309 27.5012 26.9996C27.5011 26.8684 27.5269 26.7384 27.5771 26.6172C27.6273 26.4959 27.7008 26.3857 27.7936 26.2929L31.0848 23.0027H24.5004C22.4238 23.0027 20.4286 22.1944 18.9374 20.7491C17.4463 19.3038 16.5761 17.3349 16.5112 15.2593L16.5072 15.0095C16.5072 14.7445 16.6125 14.4904 16.7999 14.303C16.9872 14.1156 17.2414 14.0103 17.5064 14.0103C17.7714 14.0103 18.0255 14.1156 18.2129 14.303C18.4002 14.4904 18.5055 14.7445 18.5055 15.0095C18.5055 16.5606 19.1066 18.0513 20.1826 19.1684C21.2585 20.2856 22.7256 20.9422 24.2756 21.0004L24.5004 21.0044H31.0808L27.7936 17.7132ZM20.5038 25.5006C20.5038 26.163 20.2406 26.7984 19.7722 27.2668C19.3038 27.7353 18.6684 27.9984 18.0059 27.9984C17.3435 27.9984 16.7081 27.7353 16.2397 27.2668C15.7712 26.7984 15.5081 26.163 15.5081 25.5006C15.5081 24.8381 15.7712 24.2027 16.2397 23.7343C16.7081 23.2659 17.3435 23.0027 18.0059 23.0027C18.6684 23.0027 19.3038 23.2659 19.7722 23.7343C20.2406 24.2027 20.5038 24.8381 20.5038 25.5006ZM22.5021 30.871C22.5021 32.4257 21.2172 33.9933 18.0059 33.9933C14.7947 33.9933 13.5098 32.4317 13.5098 30.871V30.7681C13.5098 29.7889 14.3031 28.9976 15.2813 28.9976H20.7306C21.7098 28.9976 22.5021 29.7899 22.5021 30.7681V30.871Z" fill="#557C8D"/>
</svg>
