<svg width="42" height="42" viewBox="0 0 42 42" fill="none" xmlns="http://www.w3.org/2000/svg">
<rect width="42" height="42" rx="8" fill="#0E9634"/>
<path d="M31.2776 13.3917C31.4018 13.5156 31.5003 13.6627 31.5675 13.8247C31.6348 13.9867 31.6693 14.1603 31.6693 14.3357C31.6693 14.5111 31.6348 14.6848 31.5675 14.8467C31.5003 15.0087 31.4018 15.1559 31.2776 15.2797L19.2776 27.2797C19.1538 27.4039 19.0066 27.5024 18.8447 27.5696C18.6827 27.6368 18.509 27.6714 18.3336 27.6714C18.1583 27.6714 17.9846 27.6368 17.8226 27.5696C17.6606 27.5024 17.5135 27.4039 17.3896 27.2797L12.0563 21.9464C11.8059 21.696 11.6653 21.3565 11.6653 21.0024C11.6653 20.6483 11.8059 20.3087 12.0563 20.0584C12.3067 19.808 12.6462 19.6674 13.0003 19.6674C13.3544 19.6674 13.6939 19.808 13.9443 20.0584L18.3336 24.4504L29.3896 13.3917C29.5135 13.2675 29.6606 13.169 29.8226 13.1018C29.9846 13.0346 30.1583 13 30.3336 13C30.509 13 30.6827 13.0346 30.8447 13.1018C31.0066 13.169 31.1538 13.2675 31.2776 13.3917Z" fill="white"/>
</svg>
