<svg width="178" height="178" viewBox="0 0 178 178" fill="none" xmlns="http://www.w3.org/2000/svg">
<g filter="url(#filter0_d_1_2427)">
<rect x="34.3154" y="30.0977" width="109.31" height="109.31" rx="18.0209" fill="white" shape-rendering="crispEdges"/>
<path d="M110.385 69.6632L89.4622 60.3586C89.3082 60.2862 89.1401 60.2486 88.9699 60.2486C88.7997 60.2486 88.6316 60.2862 88.4776 60.3586L67.5545 69.6632C67.3382 69.7576 67.1535 69.9122 67.0226 70.1086C66.8916 70.305 66.82 70.5349 66.816 70.7709V77.3678C66.816 89.4786 74.053 104.149 88.5268 109.22C88.8141 109.318 89.1256 109.318 89.413 109.22C103.887 104.149 111.124 89.4786 111.124 77.3678V70.7709C111.12 70.5349 111.048 70.305 110.917 70.1086C110.786 69.9122 110.602 69.7576 110.385 69.6632ZM100.51 77.8109L87.5127 94.3574C87.3237 94.5959 87.0867 94.792 86.817 94.9328C86.5472 95.0736 86.2508 95.156 85.9471 95.1746L85.8191 95.1795C85.2468 95.1785 84.6981 94.9511 84.293 94.5469L77.5976 87.8515C77.1938 87.4468 76.9673 86.8982 76.968 86.3264C76.9687 85.7547 77.1965 85.2067 77.6013 84.8029C78.006 84.3991 78.5546 84.1727 79.1263 84.1734C79.6981 84.174 80.2461 84.4018 80.6499 84.8066L85.6271 89.7838L97.1225 75.15C97.4819 74.7193 97.9949 74.4456 98.5528 74.387C99.1106 74.3284 99.6693 74.4894 100.11 74.836C100.551 75.1826 100.84 75.6873 100.915 76.2432C100.99 76.7991 100.845 77.3623 100.512 77.8134L100.51 77.8109Z" fill="#0E4259"/>
</g>
<defs>
<filter id="filter0_d_1_2427" x="0.33313" y="0.363144" width="177.274" height="177.274" filterUnits="userSpaceOnUse" color-interpolation-filters="sRGB">
<feFlood flood-opacity="0" result="BackgroundImageFix"/>
<feColorMatrix in="SourceAlpha" type="matrix" values="0 0 0 0 0 0 0 0 0 0 0 0 0 0 0 0 0 0 127 0" result="hardAlpha"/>
<feOffset dy="4.24779"/>
<feGaussianBlur stdDeviation="16.9911"/>
<feComposite in2="hardAlpha" operator="out"/>
<feColorMatrix type="matrix" values="0 0 0 0 0 0 0 0 0 0 0 0 0 0 0 0 0 0 0.1 0"/>
<feBlend mode="normal" in2="BackgroundImageFix" result="effect1_dropShadow_1_2427"/>
<feBlend mode="normal" in="SourceGraphic" in2="effect1_dropShadow_1_2427" result="shape"/>
</filter>
</defs>
</svg>
