<svg width="678" height="329" viewBox="0 0 678 329" fill="none" xmlns="http://www.w3.org/2000/svg">
<g filter="url(#filter0_f_1_881)">
<ellipse cx="339.832" cy="146.044" rx="157.168" ry="74.3363" fill="#E9F1FF"/>
</g>
<g style="mix-blend-mode:overlay">
<line x1="1.42476" y1="6.25453" x2="1.42475" y2="328.719" stroke="black" stroke-width="1.41593"/>
<line x1="36.9721" y1="6.25444" x2="36.9721" y2="328.719" stroke="black" stroke-width="1.41593"/>
<line x1="72.519" y1="6.25444" x2="72.519" y2="328.719" stroke="black" stroke-width="1.41593"/>
<line x1="108.067" y1="6.25444" x2="108.067" y2="328.719" stroke="black" stroke-width="1.41593"/>
<line x1="143.614" y1="6.25444" x2="143.614" y2="328.719" stroke="black" stroke-width="1.41593"/>
<line x1="179.161" y1="6.25444" x2="179.161" y2="328.719" stroke="black" stroke-width="1.41593"/>
<line x1="214.709" y1="6.25444" x2="214.709" y2="328.719" stroke="black" stroke-width="1.41593"/>
<line x1="250.256" y1="6.25444" x2="250.256" y2="328.719" stroke="black" stroke-width="1.41593"/>
<line x1="285.803" y1="6.25444" x2="285.803" y2="328.719" stroke="black" stroke-width="1.41593"/>
<line x1="321.351" y1="6.25444" x2="321.351" y2="328.719" stroke="black" stroke-width="1.41593"/>
<line x1="356.897" y1="6.25444" x2="356.897" y2="328.719" stroke="black" stroke-width="1.41593"/>
<line x1="392.445" y1="6.25444" x2="392.445" y2="328.719" stroke="black" stroke-width="1.41593"/>
<line x1="427.992" y1="6.25444" x2="427.992" y2="328.719" stroke="black" stroke-width="1.41593"/>
<line x1="463.54" y1="6.25444" x2="463.539" y2="328.719" stroke="black" stroke-width="1.41593"/>
<line x1="499.086" y1="6.25444" x2="499.086" y2="328.719" stroke="black" stroke-width="1.41593"/>
<line x1="534.634" y1="6.25444" x2="534.634" y2="328.719" stroke="black" stroke-width="1.41593"/>
<line x1="570.182" y1="6.25444" x2="570.182" y2="328.719" stroke="black" stroke-width="1.41593"/>
<line x1="605.728" y1="6.25444" x2="605.728" y2="328.719" stroke="black" stroke-width="1.41593"/>
<line x1="641.276" y1="6.25444" x2="641.276" y2="328.719" stroke="black" stroke-width="1.41593"/>
<line x1="676.823" y1="6.25444" x2="676.823" y2="328.719" stroke="black" stroke-width="1.41593"/>
<line x1="1.14014" y1="326.742" x2="675.692" y2="326.742" stroke="black" stroke-width="1.41593"/>
<line x1="1.14014" y1="291.195" x2="675.692" y2="291.195" stroke="black" stroke-width="1.41593"/>
<line x1="1.14014" y1="255.647" x2="675.692" y2="255.647" stroke="black" stroke-width="1.41593"/>
<line x1="1.14014" y1="220.1" x2="675.692" y2="220.1" stroke="black" stroke-width="1.41593"/>
<line x1="1.14014" y1="184.553" x2="675.692" y2="184.553" stroke="black" stroke-width="1.41593"/>
<line x1="1.14014" y1="149.005" x2="675.692" y2="149.005" stroke="black" stroke-width="1.41593"/>
<line x1="1.14014" y1="113.458" x2="675.692" y2="113.458" stroke="black" stroke-width="1.41593"/>
<line x1="1.14014" y1="77.9107" x2="675.692" y2="77.9107" stroke="black" stroke-width="1.41593"/>
<line x1="1.14014" y1="42.3634" x2="675.692" y2="42.3634" stroke="black" stroke-width="1.41593"/>
<line x1="1.14014" y1="6.8161" x2="675.692" y2="6.81613" stroke="black" stroke-width="1.41593"/>
</g>
<g filter="url(#filter1_d_1_881)">
<rect x="281.779" y="92.5606" width="108.383" height="108.383" rx="18.0209" fill="white" shape-rendering="crispEdges"/>
<path d="M334.493 129.474C334.809 129.474 334.968 129.289 335.048 128.999C335.865 124.59 335.813 124.485 340.406 123.614C340.722 123.561 340.908 123.377 340.908 123.06C340.908 122.743 340.723 122.559 340.405 122.506C335.839 121.582 335.971 121.476 335.048 117.12C334.969 116.83 334.81 116.646 334.493 116.646C334.176 116.646 334.018 116.83 333.938 117.12C333.015 121.476 333.172 121.581 328.58 122.506C328.29 122.558 328.078 122.742 328.078 123.06C328.078 123.376 328.29 123.561 328.579 123.614C333.173 124.538 333.12 124.59 333.938 128.999C334.017 129.289 334.177 129.474 334.493 129.474ZM321.717 147.636C322.218 147.636 322.561 147.319 322.614 146.844C323.564 139.796 323.801 139.796 331.087 138.397C331.563 138.318 331.906 138 331.906 137.499C331.906 137.024 331.563 136.681 331.087 136.601C323.801 135.599 323.538 135.361 322.614 128.181C322.561 127.706 322.218 127.362 321.717 127.362C321.241 127.362 320.898 127.706 320.845 128.207C319.974 135.281 319.605 135.255 312.372 136.601C311.896 136.707 311.553 137.024 311.553 137.499C311.553 138.027 311.896 138.318 312.476 138.397C319.658 139.558 319.974 139.743 320.845 146.791C320.898 147.319 321.241 147.636 321.717 147.636ZM339.614 176.859C340.301 176.859 340.802 176.357 340.934 175.644C342.808 161.179 344.841 158.987 359.148 157.403C359.887 157.324 360.389 156.77 360.389 156.083C360.389 155.396 359.887 154.869 359.148 154.763C344.841 153.18 342.808 150.989 340.934 136.523C340.802 135.81 340.301 135.334 339.614 135.334C338.928 135.334 338.426 135.81 338.321 136.523C336.446 150.989 334.387 153.18 320.106 154.763C319.34 154.869 318.839 155.397 318.839 156.083C318.839 156.77 319.34 157.324 320.106 157.403C334.36 159.277 336.341 161.204 338.321 175.644C338.426 176.357 338.928 176.859 339.614 176.859Z" fill="#0E4259"/>
</g>
<defs>
<filter id="filter0_f_1_881" x="111.867" y="0.911499" width="455.929" height="290.265" filterUnits="userSpaceOnUse" color-interpolation-filters="sRGB">
<feFlood flood-opacity="0" result="BackgroundImageFix"/>
<feBlend mode="normal" in="SourceGraphic" in2="BackgroundImageFix" result="shape"/>
<feGaussianBlur stdDeviation="35.3982" result="effect1_foregroundBlur_1_881"/>
</filter>
<filter id="filter1_d_1_881" x="247.797" y="62.8261" width="176.347" height="176.348" filterUnits="userSpaceOnUse" color-interpolation-filters="sRGB">
<feFlood flood-opacity="0" result="BackgroundImageFix"/>
<feColorMatrix in="SourceAlpha" type="matrix" values="0 0 0 0 0 0 0 0 0 0 0 0 0 0 0 0 0 0 127 0" result="hardAlpha"/>
<feOffset dy="4.24779"/>
<feGaussianBlur stdDeviation="16.9911"/>
<feComposite in2="hardAlpha" operator="out"/>
<feColorMatrix type="matrix" values="0 0 0 0 0 0 0 0 0 0 0 0 0 0 0 0 0 0 0.1 0"/>
<feBlend mode="normal" in2="BackgroundImageFix" result="effect1_dropShadow_1_881"/>
<feBlend mode="normal" in="SourceGraphic" in2="effect1_dropShadow_1_881" result="shape"/>
</filter>
</defs>
</svg>
